# xmcd
#
# Track frame offsets: 
#        150
#        17666
#        33303
#        46213
#        61514
#        77189
#        94826
#        114116
#        139182
#        155694
#        176670
#        195289
#        212159
#        226319
#        248398
#        263737
#        279299
#
# Disc length: 3957 seconds
#
# Revision: 0
# Processed by: cddbd v1.5.2PL0 Copyright (c) Steve Scherf et al.
# Submitted via: ExactAudioCopy v0.95b2
#
DISCID=d10f7311
DTITLE=Maciel Melo - Sem Ouro e Sem Mágoa
DYEAR=1900
DGENRE=Nordeste
TTITLE0=Pelos cantos da casa
TTITLE1=Nas linhas da sua mão
TTITLE2=É só triscar que sai faísca
TTITLE3=Até naqueles dias
TTITLE4=Não é brincadeira
TTITLE5=Roubando a cena
TTITLE6=Bolero de Izabel
TTITLE7=Rainha
TTITLE8=Mamãe papai me disse
TTITLE9=Casinha velha
TTITLE10=Sem ouro e sem mágoa
TTITLE11=Fronteira da graça
TTITLE12=Jeneiro
TTITLE13=Estrelas do passado
TTITLE14=Cores e tons
TTITLE15=Galope à luz do luar
TTITLE16=Da cor do chão
EXTD=
EXTT0=
EXTT1=
EXTT2=
EXTT3=
EXTT4=
EXTT5=
EXTT6=
EXTT7=
EXTT8=
EXTT9=
EXTT10=
EXTT11=
EXTT12=
EXTT13=
EXTT14=
EXTT15=
EXTT16=
PLAYORDER=
